%TF.GenerationSoftware,KiCad,Pcbnew,10.0.3*%
%TF.CreationDate,2026-08-20T16:39:51-05:00*%
%TF.ProjectId,MotorDriverModule,4d6f746f-7244-4726-9976-65724d6f6475,rev?*%
%TF.SameCoordinates,Original*%
%TF.FileFunction,Copper,L1,Top*%
%TF.FilePolarity,Positive*%
%FSLAX46Y46*%
G04 Gerber Fmt 4.6, Leading zero omitted, Abs format (unit mm)*
G04 Created by KiCad (PCBNEW 10.0.3) date 2026-08-20 16:39:51*
%MOMM*%
%LPD*%
G01*
G04 APERTURE LIST*
G04 Aperture macros list*
%AMRoundRect*
0 Rectangle with rounded corners*
0 $1 Rounding radius*
0 $2 $3 $4 $5 $6 $7 $8 $9 X,Y pos of 4 corners*
0 Add a 4 corners polygon primitive as box body*
4,1,4,$2,$3,$4,$5,$6,$7,$8,$9,$2,$3,0*
0 Add four circle primitives for the rounded corners*
1,1,$1+$1,$2,$3*
1,1,$1+$1,$4,$5*
1,1,$1+$1,$6,$7*
1,1,$1+$1,$8,$9*
0 Add four rect primitives between the rounded corners*
20,1,$1+$1,$2,$3,$4,$5,0*
20,1,$1+$1,$4,$5,$6,$7,0*
20,1,$1+$1,$6,$7,$8,$9,0*
20,1,$1+$1,$8,$9,$2,$3,0*%
G04 Aperture macros list end*
%TA.AperFunction,ComponentPad*%
%ADD10C,1.600000*%
%TD*%
%TA.AperFunction,ComponentPad*%
%ADD11RoundRect,0.250000X-1.350000X-1.350000X1.350000X-1.350000X1.350000X1.350000X-1.350000X1.350000X0*%
%TD*%
%TA.AperFunction,ComponentPad*%
%ADD12C,3.200000*%
%TD*%
%TA.AperFunction,ComponentPad*%
%ADD13RoundRect,0.250000X-1.050000X1.050000X-1.050000X-1.050000X1.050000X-1.050000X1.050000X1.050000X0*%
%TD*%
%TA.AperFunction,ComponentPad*%
%ADD14C,2.600000*%
%TD*%
%TA.AperFunction,ComponentPad*%
%ADD15R,1.700000X1.700000*%
%TD*%
%TA.AperFunction,ComponentPad*%
%ADD16C,1.700000*%
%TD*%
%TA.AperFunction,ComponentPad*%
%ADD17R,1.050000X1.500000*%
%TD*%
%TA.AperFunction,ComponentPad*%
%ADD18O,1.050000X1.500000*%
%TD*%
%TA.AperFunction,ComponentPad*%
%ADD19R,1.905000X2.000000*%
%TD*%
%TA.AperFunction,ComponentPad*%
%ADD20O,1.905000X2.000000*%
%TD*%
%TA.AperFunction,Conductor*%
%ADD21C,0.200000*%
%TD*%
G04 APERTURE END LIST*
D10*
%TO.P,1K1,1*%
%TO.N,+9V*%
X124190000Y-97000000D03*
%TO.P,1K1,2*%
%TO.N,Net-(2N2222A1-C)*%
X131810000Y-97000000D03*
%TD*%
D11*
%TO.P,1N5822,1,K_1*%
%TO.N,+9V*%
X118875000Y-78375000D03*
D12*
%TO.P,1N5822,2,A_2*%
%TO.N,Net-(1N5822-A)*%
X134115000Y-78375000D03*
%TD*%
D13*
%TO.P,M2,1,+_1*%
%TO.N,+9V*%
X118000000Y-96500000D03*
D14*
%TO.P,M2,2,-_2*%
%TO.N,Net-(1N5822-A)*%
X118000000Y-101500000D03*
%TD*%
D15*
%TO.P,PWM/GND1,1,Pin_1_1*%
%TO.N,Net-(PWM/GND1-Pin_1)*%
X116295000Y-107500000D03*
D16*
%TO.P,PWM/GND1,2,Pin_2_2*%
%TO.N,GND*%
X118835000Y-107500000D03*
%TD*%
D10*
%TO.P,220\u03A911,1*%
%TO.N,Net-(2N2222A1-B)*%
X126000000Y-108810000D03*
%TO.P,220\u03A911,2*%
%TO.N,Net-(PWM/GND1-Pin_1)*%
X126000000Y-101190000D03*
%TD*%
%TO.P,0.1uF1,1*%
%TO.N,+9V*%
X136000000Y-113500000D03*
%TO.P,0.1uF1,2*%
%TO.N,GND*%
X131000000Y-113500000D03*
%TD*%
%TO.P,10K1,1*%
%TO.N,Net-(2N2222A1-B)*%
X132500000Y-108810000D03*
%TO.P,10K1,2*%
%TO.N,GND*%
X132500000Y-101190000D03*
%TD*%
D17*
%TO.P,2N2222A1,1,C_1*%
%TO.N,Net-(2N2222A1-C)*%
X132230000Y-85500000D03*
D18*
%TO.P,2N2222A1,2,B_2*%
%TO.N,Net-(2N2222A1-B)*%
X133500000Y-85500000D03*
%TO.P,2N2222A1,3,E_3*%
%TO.N,GND*%
X134770000Y-85500000D03*
%TD*%
D13*
%TO.P,M1,1,+_1*%
%TO.N,+9V*%
X118000000Y-84500000D03*
D14*
%TO.P,M1,2,-_2*%
%TO.N,Net-(1N5822-A)*%
X118000000Y-89500000D03*
%TD*%
D15*
%TO.P,VDD/GND1,1,Pin_1_1*%
%TO.N,+9V*%
X116225000Y-113000000D03*
D16*
%TO.P,VDD/GND1,2,Pin_2_2*%
%TO.N,GND*%
X118765000Y-113000000D03*
%TD*%
D19*
%TO.P,IRF540N1,1,G_1*%
%TO.N,Net-(2N2222A1-C)*%
X128500000Y-92000000D03*
D20*
%TO.P,IRF540N1,2,D_2*%
%TO.N,Net-(1N5822-A)*%
X131040000Y-92000000D03*
%TO.P,IRF540N1,3,S_3*%
%TO.N,GND*%
X133580000Y-92000000D03*
%TD*%
%TO.N,GND*%
D21*
X118835000Y-112695000D02*
X118835000Y-107500000D01*
X118765000Y-113000000D02*
X118765000Y-112765000D01*
X136040000Y-93450000D02*
X136040000Y-108460000D01*
X136040000Y-108460000D02*
X131000000Y-113500000D01*
X134770000Y-85860000D02*
X134770000Y-92180000D01*
X118765000Y-112765000D02*
X118835000Y-112695000D01*
X132500000Y-104920000D02*
X136040000Y-108460000D01*
X130500000Y-113000000D02*
X131000000Y-113500000D01*
X134770000Y-92180000D02*
X136040000Y-93450000D01*
X118765000Y-113000000D02*
X130500000Y-113000000D01*
X132500000Y-101190000D02*
X132500000Y-104920000D01*
X134590000Y-92000000D02*
X134770000Y-92180000D01*
X133580000Y-92000000D02*
X134590000Y-92000000D01*
%TO.N,+9V*%
X139000000Y-110500000D02*
X139000000Y-75000000D01*
X111000000Y-89500000D02*
X111000000Y-89000000D01*
X110600000Y-103900000D02*
X118000000Y-96500000D01*
X117337258Y-87900000D02*
X118662742Y-87900000D01*
X110600000Y-107375000D02*
X110600000Y-103900000D01*
X124190000Y-93427258D02*
X124190000Y-97000000D01*
X116400000Y-94900000D02*
X116400000Y-88837258D01*
X139000000Y-75000000D02*
X122250000Y-75000000D01*
X118662742Y-87900000D02*
X124190000Y-93427258D01*
X116400000Y-88837258D02*
X117337258Y-87900000D01*
X118000000Y-84500000D02*
X118000000Y-79250000D01*
X118000000Y-96500000D02*
X111000000Y-89500000D01*
X116225000Y-113000000D02*
X110600000Y-107375000D01*
X115500000Y-84500000D02*
X118000000Y-84500000D01*
X136000000Y-113500000D02*
X139000000Y-110500000D01*
X118000000Y-79250000D02*
X118875000Y-78375000D01*
X118000000Y-96500000D02*
X116400000Y-94900000D01*
X122250000Y-75000000D02*
X118875000Y-78375000D01*
X111000000Y-89000000D02*
X115500000Y-84500000D01*
%TO.N,Net-(2N2222A1-C)*%
X132230000Y-86770000D02*
X132230000Y-85500000D01*
X128500000Y-90500000D02*
X132230000Y-86770000D01*
X132292500Y-96517500D02*
X132292500Y-91433698D01*
X132292500Y-91433698D02*
X131558802Y-90700000D01*
X131558802Y-90700000D02*
X129800000Y-90700000D01*
X131810000Y-97000000D02*
X132292500Y-96517500D01*
X129800000Y-90700000D02*
X128500000Y-92000000D01*
X128500000Y-92000000D02*
X128500000Y-90500000D01*
%TO.N,Net-(1N5822-A)*%
X120000000Y-91500000D02*
X120000000Y-99500000D01*
X131040000Y-92000000D02*
X124940000Y-98100000D01*
X120000000Y-99500000D02*
X118000000Y-101500000D01*
X127247500Y-93300000D02*
X129740000Y-93300000D01*
X124940000Y-98100000D02*
X123734365Y-98100000D01*
X123734365Y-98100000D02*
X118000000Y-92365635D01*
X118000000Y-92365635D02*
X118000000Y-89500000D01*
X127247500Y-85242500D02*
X127247500Y-93300000D01*
X118000000Y-89500000D02*
X120000000Y-91500000D01*
X134115000Y-78375000D02*
X127247500Y-85242500D01*
X129740000Y-93300000D02*
X131040000Y-92000000D01*
%TO.N,Net-(2N2222A1-B)*%
X136440000Y-109615635D02*
X131455635Y-114600000D01*
X135111726Y-84450000D02*
X136440000Y-85778274D01*
X118358654Y-106350000D02*
X130040000Y-106350000D01*
X117615000Y-107093654D02*
X118358654Y-106350000D01*
X133500000Y-85275000D02*
X134325000Y-84450000D01*
X133500000Y-85500000D02*
X133500000Y-85275000D01*
X130040000Y-106350000D02*
X132500000Y-108810000D01*
X118738654Y-114600000D02*
X117615000Y-113476346D01*
X136440000Y-85778274D02*
X136440000Y-109615635D01*
X117615000Y-113476346D02*
X117615000Y-107093654D01*
X132500000Y-108810000D02*
X126000000Y-108810000D01*
X134325000Y-84450000D02*
X135111726Y-84450000D01*
X131455635Y-114600000D02*
X118738654Y-114600000D01*
%TO.N,Net-(PWM/GND1-Pin_1)*%
X122605000Y-101190000D02*
X126000000Y-101190000D01*
X116295000Y-107500000D02*
X122605000Y-101190000D01*
%TD*%
M02*
