%TF.GenerationSoftware,KiCad,Pcbnew,10.0.3*%
%TF.CreationDate,2026-08-20T16:39:51-05:00*%
%TF.ProjectId,MotorDriverModule,4d6f746f-7244-4726-9976-65724d6f6475,rev?*%
%TF.SameCoordinates,Original*%
%TF.FileFunction,Legend,Top*%
%TF.FilePolarity,Positive*%
%FSLAX46Y46*%
G04 Gerber Fmt 4.6, Leading zero omitted, Abs format (unit mm)*
G04 Created by KiCad (PCBNEW 10.0.3) date 2026-08-20 16:39:51*
%MOMM*%
%LPD*%
G01*
G04 APERTURE LIST*
%ADD10C,0.150000*%
%ADD11C,0.120000*%
G04 APERTURE END LIST*
D10*
X127309523Y-95084819D02*
X126738095Y-95084819D01*
X127023809Y-95084819D02*
X127023809Y-94084819D01*
X127023809Y-94084819D02*
X126928571Y-94227676D01*
X126928571Y-94227676D02*
X126833333Y-94322914D01*
X126833333Y-94322914D02*
X126738095Y-94370533D01*
X127738095Y-95084819D02*
X127738095Y-94084819D01*
X128309523Y-95084819D02*
X127880952Y-94513390D01*
X128309523Y-94084819D02*
X127738095Y-94656247D01*
X129261904Y-95084819D02*
X128690476Y-95084819D01*
X128976190Y-95084819D02*
X128976190Y-94084819D01*
X128976190Y-94084819D02*
X128880952Y-94227676D01*
X128880952Y-94227676D02*
X128785714Y-94322914D01*
X128785714Y-94322914D02*
X128690476Y-94370533D01*
X124352142Y-75109819D02*
X123780714Y-75109819D01*
X124066428Y-75109819D02*
X124066428Y-74109819D01*
X124066428Y-74109819D02*
X123971190Y-74252676D01*
X123971190Y-74252676D02*
X123875952Y-74347914D01*
X123875952Y-74347914D02*
X123780714Y-74395533D01*
X124780714Y-75109819D02*
X124780714Y-74109819D01*
X124780714Y-74109819D02*
X125352142Y-75109819D01*
X125352142Y-75109819D02*
X125352142Y-74109819D01*
X126304523Y-74109819D02*
X125828333Y-74109819D01*
X125828333Y-74109819D02*
X125780714Y-74586009D01*
X125780714Y-74586009D02*
X125828333Y-74538390D01*
X125828333Y-74538390D02*
X125923571Y-74490771D01*
X125923571Y-74490771D02*
X126161666Y-74490771D01*
X126161666Y-74490771D02*
X126256904Y-74538390D01*
X126256904Y-74538390D02*
X126304523Y-74586009D01*
X126304523Y-74586009D02*
X126352142Y-74681247D01*
X126352142Y-74681247D02*
X126352142Y-74919342D01*
X126352142Y-74919342D02*
X126304523Y-75014580D01*
X126304523Y-75014580D02*
X126256904Y-75062200D01*
X126256904Y-75062200D02*
X126161666Y-75109819D01*
X126161666Y-75109819D02*
X125923571Y-75109819D01*
X125923571Y-75109819D02*
X125828333Y-75062200D01*
X125828333Y-75062200D02*
X125780714Y-75014580D01*
X126923571Y-74538390D02*
X126828333Y-74490771D01*
X126828333Y-74490771D02*
X126780714Y-74443152D01*
X126780714Y-74443152D02*
X126733095Y-74347914D01*
X126733095Y-74347914D02*
X126733095Y-74300295D01*
X126733095Y-74300295D02*
X126780714Y-74205057D01*
X126780714Y-74205057D02*
X126828333Y-74157438D01*
X126828333Y-74157438D02*
X126923571Y-74109819D01*
X126923571Y-74109819D02*
X127114047Y-74109819D01*
X127114047Y-74109819D02*
X127209285Y-74157438D01*
X127209285Y-74157438D02*
X127256904Y-74205057D01*
X127256904Y-74205057D02*
X127304523Y-74300295D01*
X127304523Y-74300295D02*
X127304523Y-74347914D01*
X127304523Y-74347914D02*
X127256904Y-74443152D01*
X127256904Y-74443152D02*
X127209285Y-74490771D01*
X127209285Y-74490771D02*
X127114047Y-74538390D01*
X127114047Y-74538390D02*
X126923571Y-74538390D01*
X126923571Y-74538390D02*
X126828333Y-74586009D01*
X126828333Y-74586009D02*
X126780714Y-74633628D01*
X126780714Y-74633628D02*
X126733095Y-74728866D01*
X126733095Y-74728866D02*
X126733095Y-74919342D01*
X126733095Y-74919342D02*
X126780714Y-75014580D01*
X126780714Y-75014580D02*
X126828333Y-75062200D01*
X126828333Y-75062200D02*
X126923571Y-75109819D01*
X126923571Y-75109819D02*
X127114047Y-75109819D01*
X127114047Y-75109819D02*
X127209285Y-75062200D01*
X127209285Y-75062200D02*
X127256904Y-75014580D01*
X127256904Y-75014580D02*
X127304523Y-74919342D01*
X127304523Y-74919342D02*
X127304523Y-74728866D01*
X127304523Y-74728866D02*
X127256904Y-74633628D01*
X127256904Y-74633628D02*
X127209285Y-74586009D01*
X127209285Y-74586009D02*
X127114047Y-74538390D01*
X127685476Y-74205057D02*
X127733095Y-74157438D01*
X127733095Y-74157438D02*
X127828333Y-74109819D01*
X127828333Y-74109819D02*
X128066428Y-74109819D01*
X128066428Y-74109819D02*
X128161666Y-74157438D01*
X128161666Y-74157438D02*
X128209285Y-74205057D01*
X128209285Y-74205057D02*
X128256904Y-74300295D01*
X128256904Y-74300295D02*
X128256904Y-74395533D01*
X128256904Y-74395533D02*
X128209285Y-74538390D01*
X128209285Y-74538390D02*
X127637857Y-75109819D01*
X127637857Y-75109819D02*
X128256904Y-75109819D01*
X128637857Y-74205057D02*
X128685476Y-74157438D01*
X128685476Y-74157438D02*
X128780714Y-74109819D01*
X128780714Y-74109819D02*
X129018809Y-74109819D01*
X129018809Y-74109819D02*
X129114047Y-74157438D01*
X129114047Y-74157438D02*
X129161666Y-74205057D01*
X129161666Y-74205057D02*
X129209285Y-74300295D01*
X129209285Y-74300295D02*
X129209285Y-74395533D01*
X129209285Y-74395533D02*
X129161666Y-74538390D01*
X129161666Y-74538390D02*
X128590238Y-75109819D01*
X128590238Y-75109819D02*
X129209285Y-75109819D01*
X118613095Y-76229819D02*
X118613095Y-75229819D01*
X119184523Y-76229819D02*
X118755952Y-75658390D01*
X119184523Y-75229819D02*
X118613095Y-75801247D01*
X123574819Y-99809523D02*
X122574819Y-99809523D01*
X122574819Y-99809523D02*
X123289104Y-99476190D01*
X123289104Y-99476190D02*
X122574819Y-99142857D01*
X122574819Y-99142857D02*
X123574819Y-99142857D01*
X122670057Y-98714285D02*
X122622438Y-98666666D01*
X122622438Y-98666666D02*
X122574819Y-98571428D01*
X122574819Y-98571428D02*
X122574819Y-98333333D01*
X122574819Y-98333333D02*
X122622438Y-98238095D01*
X122622438Y-98238095D02*
X122670057Y-98190476D01*
X122670057Y-98190476D02*
X122765295Y-98142857D01*
X122765295Y-98142857D02*
X122860533Y-98142857D01*
X122860533Y-98142857D02*
X123003390Y-98190476D01*
X123003390Y-98190476D02*
X123574819Y-98761904D01*
X123574819Y-98761904D02*
X123574819Y-98142857D01*
X113571429Y-110454819D02*
X113571429Y-109454819D01*
X113571429Y-109454819D02*
X113952381Y-109454819D01*
X113952381Y-109454819D02*
X114047619Y-109502438D01*
X114047619Y-109502438D02*
X114095238Y-109550057D01*
X114095238Y-109550057D02*
X114142857Y-109645295D01*
X114142857Y-109645295D02*
X114142857Y-109788152D01*
X114142857Y-109788152D02*
X114095238Y-109883390D01*
X114095238Y-109883390D02*
X114047619Y-109931009D01*
X114047619Y-109931009D02*
X113952381Y-109978628D01*
X113952381Y-109978628D02*
X113571429Y-109978628D01*
X114476191Y-109454819D02*
X114714286Y-110454819D01*
X114714286Y-110454819D02*
X114904762Y-109740533D01*
X114904762Y-109740533D02*
X115095238Y-110454819D01*
X115095238Y-110454819D02*
X115333334Y-109454819D01*
X115714286Y-110454819D02*
X115714286Y-109454819D01*
X115714286Y-109454819D02*
X116047619Y-110169104D01*
X116047619Y-110169104D02*
X116380952Y-109454819D01*
X116380952Y-109454819D02*
X116380952Y-110454819D01*
X117571428Y-109407200D02*
X116714286Y-110692914D01*
X118428571Y-109502438D02*
X118333333Y-109454819D01*
X118333333Y-109454819D02*
X118190476Y-109454819D01*
X118190476Y-109454819D02*
X118047619Y-109502438D01*
X118047619Y-109502438D02*
X117952381Y-109597676D01*
X117952381Y-109597676D02*
X117904762Y-109692914D01*
X117904762Y-109692914D02*
X117857143Y-109883390D01*
X117857143Y-109883390D02*
X117857143Y-110026247D01*
X117857143Y-110026247D02*
X117904762Y-110216723D01*
X117904762Y-110216723D02*
X117952381Y-110311961D01*
X117952381Y-110311961D02*
X118047619Y-110407200D01*
X118047619Y-110407200D02*
X118190476Y-110454819D01*
X118190476Y-110454819D02*
X118285714Y-110454819D01*
X118285714Y-110454819D02*
X118428571Y-110407200D01*
X118428571Y-110407200D02*
X118476190Y-110359580D01*
X118476190Y-110359580D02*
X118476190Y-110026247D01*
X118476190Y-110026247D02*
X118285714Y-110026247D01*
X118904762Y-110454819D02*
X118904762Y-109454819D01*
X118904762Y-109454819D02*
X119476190Y-110454819D01*
X119476190Y-110454819D02*
X119476190Y-109454819D01*
X119952381Y-110454819D02*
X119952381Y-109454819D01*
X119952381Y-109454819D02*
X120190476Y-109454819D01*
X120190476Y-109454819D02*
X120333333Y-109502438D01*
X120333333Y-109502438D02*
X120428571Y-109597676D01*
X120428571Y-109597676D02*
X120476190Y-109692914D01*
X120476190Y-109692914D02*
X120523809Y-109883390D01*
X120523809Y-109883390D02*
X120523809Y-110026247D01*
X120523809Y-110026247D02*
X120476190Y-110216723D01*
X120476190Y-110216723D02*
X120428571Y-110311961D01*
X120428571Y-110311961D02*
X120333333Y-110407200D01*
X120333333Y-110407200D02*
X120190476Y-110454819D01*
X120190476Y-110454819D02*
X119952381Y-110454819D01*
X121476190Y-110454819D02*
X120904762Y-110454819D01*
X121190476Y-110454819D02*
X121190476Y-109454819D01*
X121190476Y-109454819D02*
X121095238Y-109597676D01*
X121095238Y-109597676D02*
X121000000Y-109692914D01*
X121000000Y-109692914D02*
X120904762Y-109740533D01*
X123180057Y-107761904D02*
X123132438Y-107714285D01*
X123132438Y-107714285D02*
X123084819Y-107619047D01*
X123084819Y-107619047D02*
X123084819Y-107380952D01*
X123084819Y-107380952D02*
X123132438Y-107285714D01*
X123132438Y-107285714D02*
X123180057Y-107238095D01*
X123180057Y-107238095D02*
X123275295Y-107190476D01*
X123275295Y-107190476D02*
X123370533Y-107190476D01*
X123370533Y-107190476D02*
X123513390Y-107238095D01*
X123513390Y-107238095D02*
X124084819Y-107809523D01*
X124084819Y-107809523D02*
X124084819Y-107190476D01*
X123180057Y-106809523D02*
X123132438Y-106761904D01*
X123132438Y-106761904D02*
X123084819Y-106666666D01*
X123084819Y-106666666D02*
X123084819Y-106428571D01*
X123084819Y-106428571D02*
X123132438Y-106333333D01*
X123132438Y-106333333D02*
X123180057Y-106285714D01*
X123180057Y-106285714D02*
X123275295Y-106238095D01*
X123275295Y-106238095D02*
X123370533Y-106238095D01*
X123370533Y-106238095D02*
X123513390Y-106285714D01*
X123513390Y-106285714D02*
X124084819Y-106857142D01*
X124084819Y-106857142D02*
X124084819Y-106238095D01*
X123084819Y-105619047D02*
X123084819Y-105523809D01*
X123084819Y-105523809D02*
X123132438Y-105428571D01*
X123132438Y-105428571D02*
X123180057Y-105380952D01*
X123180057Y-105380952D02*
X123275295Y-105333333D01*
X123275295Y-105333333D02*
X123465771Y-105285714D01*
X123465771Y-105285714D02*
X123703866Y-105285714D01*
X123703866Y-105285714D02*
X123894342Y-105333333D01*
X123894342Y-105333333D02*
X123989580Y-105380952D01*
X123989580Y-105380952D02*
X124037200Y-105428571D01*
X124037200Y-105428571D02*
X124084819Y-105523809D01*
X124084819Y-105523809D02*
X124084819Y-105619047D01*
X124084819Y-105619047D02*
X124037200Y-105714285D01*
X124037200Y-105714285D02*
X123989580Y-105761904D01*
X123989580Y-105761904D02*
X123894342Y-105809523D01*
X123894342Y-105809523D02*
X123703866Y-105857142D01*
X123703866Y-105857142D02*
X123465771Y-105857142D01*
X123465771Y-105857142D02*
X123275295Y-105809523D01*
X123275295Y-105809523D02*
X123180057Y-105761904D01*
X123180057Y-105761904D02*
X123132438Y-105714285D01*
X123132438Y-105714285D02*
X123084819Y-105619047D01*
X124084819Y-104904761D02*
X124084819Y-104666666D01*
X124084819Y-104666666D02*
X123894342Y-104666666D01*
X123894342Y-104666666D02*
X123846723Y-104761904D01*
X123846723Y-104761904D02*
X123751485Y-104857142D01*
X123751485Y-104857142D02*
X123608628Y-104904761D01*
X123608628Y-104904761D02*
X123370533Y-104904761D01*
X123370533Y-104904761D02*
X123227676Y-104857142D01*
X123227676Y-104857142D02*
X123132438Y-104761904D01*
X123132438Y-104761904D02*
X123084819Y-104619047D01*
X123084819Y-104619047D02*
X123084819Y-104428571D01*
X123084819Y-104428571D02*
X123132438Y-104285714D01*
X123132438Y-104285714D02*
X123227676Y-104190476D01*
X123227676Y-104190476D02*
X123370533Y-104142857D01*
X123370533Y-104142857D02*
X123608628Y-104142857D01*
X123608628Y-104142857D02*
X123751485Y-104190476D01*
X123751485Y-104190476D02*
X123846723Y-104285714D01*
X123846723Y-104285714D02*
X123894342Y-104380952D01*
X123894342Y-104380952D02*
X124084819Y-104380952D01*
X124084819Y-104380952D02*
X124084819Y-104142857D01*
X124084819Y-103190476D02*
X124084819Y-103761904D01*
X124084819Y-103476190D02*
X123084819Y-103476190D01*
X123084819Y-103476190D02*
X123227676Y-103571428D01*
X123227676Y-103571428D02*
X123322914Y-103666666D01*
X123322914Y-103666666D02*
X123370533Y-103761904D01*
X124084819Y-102238095D02*
X124084819Y-102809523D01*
X124084819Y-102523809D02*
X123084819Y-102523809D01*
X123084819Y-102523809D02*
X123227676Y-102619047D01*
X123227676Y-102619047D02*
X123322914Y-102714285D01*
X123322914Y-102714285D02*
X123370533Y-102809523D01*
X131380952Y-115454819D02*
X131476190Y-115454819D01*
X131476190Y-115454819D02*
X131571428Y-115502438D01*
X131571428Y-115502438D02*
X131619047Y-115550057D01*
X131619047Y-115550057D02*
X131666666Y-115645295D01*
X131666666Y-115645295D02*
X131714285Y-115835771D01*
X131714285Y-115835771D02*
X131714285Y-116073866D01*
X131714285Y-116073866D02*
X131666666Y-116264342D01*
X131666666Y-116264342D02*
X131619047Y-116359580D01*
X131619047Y-116359580D02*
X131571428Y-116407200D01*
X131571428Y-116407200D02*
X131476190Y-116454819D01*
X131476190Y-116454819D02*
X131380952Y-116454819D01*
X131380952Y-116454819D02*
X131285714Y-116407200D01*
X131285714Y-116407200D02*
X131238095Y-116359580D01*
X131238095Y-116359580D02*
X131190476Y-116264342D01*
X131190476Y-116264342D02*
X131142857Y-116073866D01*
X131142857Y-116073866D02*
X131142857Y-115835771D01*
X131142857Y-115835771D02*
X131190476Y-115645295D01*
X131190476Y-115645295D02*
X131238095Y-115550057D01*
X131238095Y-115550057D02*
X131285714Y-115502438D01*
X131285714Y-115502438D02*
X131380952Y-115454819D01*
X132142857Y-116359580D02*
X132190476Y-116407200D01*
X132190476Y-116407200D02*
X132142857Y-116454819D01*
X132142857Y-116454819D02*
X132095238Y-116407200D01*
X132095238Y-116407200D02*
X132142857Y-116359580D01*
X132142857Y-116359580D02*
X132142857Y-116454819D01*
X133142856Y-116454819D02*
X132571428Y-116454819D01*
X132857142Y-116454819D02*
X132857142Y-115454819D01*
X132857142Y-115454819D02*
X132761904Y-115597676D01*
X132761904Y-115597676D02*
X132666666Y-115692914D01*
X132666666Y-115692914D02*
X132571428Y-115740533D01*
X133999999Y-115788152D02*
X133999999Y-116454819D01*
X133571428Y-115788152D02*
X133571428Y-116311961D01*
X133571428Y-116311961D02*
X133619047Y-116407200D01*
X133619047Y-116407200D02*
X133714285Y-116454819D01*
X133714285Y-116454819D02*
X133857142Y-116454819D01*
X133857142Y-116454819D02*
X133952380Y-116407200D01*
X133952380Y-116407200D02*
X133999999Y-116359580D01*
X134809523Y-115931009D02*
X134476190Y-115931009D01*
X134476190Y-116454819D02*
X134476190Y-115454819D01*
X134476190Y-115454819D02*
X134952380Y-115454819D01*
X135857142Y-116454819D02*
X135285714Y-116454819D01*
X135571428Y-116454819D02*
X135571428Y-115454819D01*
X135571428Y-115454819D02*
X135476190Y-115597676D01*
X135476190Y-115597676D02*
X135380952Y-115692914D01*
X135380952Y-115692914D02*
X135285714Y-115740533D01*
X130584819Y-106166666D02*
X130584819Y-106738094D01*
X130584819Y-106452380D02*
X129584819Y-106452380D01*
X129584819Y-106452380D02*
X129727676Y-106547618D01*
X129727676Y-106547618D02*
X129822914Y-106642856D01*
X129822914Y-106642856D02*
X129870533Y-106738094D01*
X129584819Y-105547618D02*
X129584819Y-105452380D01*
X129584819Y-105452380D02*
X129632438Y-105357142D01*
X129632438Y-105357142D02*
X129680057Y-105309523D01*
X129680057Y-105309523D02*
X129775295Y-105261904D01*
X129775295Y-105261904D02*
X129965771Y-105214285D01*
X129965771Y-105214285D02*
X130203866Y-105214285D01*
X130203866Y-105214285D02*
X130394342Y-105261904D01*
X130394342Y-105261904D02*
X130489580Y-105309523D01*
X130489580Y-105309523D02*
X130537200Y-105357142D01*
X130537200Y-105357142D02*
X130584819Y-105452380D01*
X130584819Y-105452380D02*
X130584819Y-105547618D01*
X130584819Y-105547618D02*
X130537200Y-105642856D01*
X130537200Y-105642856D02*
X130489580Y-105690475D01*
X130489580Y-105690475D02*
X130394342Y-105738094D01*
X130394342Y-105738094D02*
X130203866Y-105785713D01*
X130203866Y-105785713D02*
X129965771Y-105785713D01*
X129965771Y-105785713D02*
X129775295Y-105738094D01*
X129775295Y-105738094D02*
X129680057Y-105690475D01*
X129680057Y-105690475D02*
X129632438Y-105642856D01*
X129632438Y-105642856D02*
X129584819Y-105547618D01*
X130584819Y-104785713D02*
X129584819Y-104785713D01*
X130584819Y-104214285D02*
X130013390Y-104642856D01*
X129584819Y-104214285D02*
X130156247Y-104785713D01*
X130584819Y-103261904D02*
X130584819Y-103833332D01*
X130584819Y-103547618D02*
X129584819Y-103547618D01*
X129584819Y-103547618D02*
X129727676Y-103642856D01*
X129727676Y-103642856D02*
X129822914Y-103738094D01*
X129822914Y-103738094D02*
X129870533Y-103833332D01*
X129880952Y-81490057D02*
X129928571Y-81442438D01*
X129928571Y-81442438D02*
X130023809Y-81394819D01*
X130023809Y-81394819D02*
X130261904Y-81394819D01*
X130261904Y-81394819D02*
X130357142Y-81442438D01*
X130357142Y-81442438D02*
X130404761Y-81490057D01*
X130404761Y-81490057D02*
X130452380Y-81585295D01*
X130452380Y-81585295D02*
X130452380Y-81680533D01*
X130452380Y-81680533D02*
X130404761Y-81823390D01*
X130404761Y-81823390D02*
X129833333Y-82394819D01*
X129833333Y-82394819D02*
X130452380Y-82394819D01*
X130880952Y-82394819D02*
X130880952Y-81394819D01*
X130880952Y-81394819D02*
X131452380Y-82394819D01*
X131452380Y-82394819D02*
X131452380Y-81394819D01*
X131880952Y-81490057D02*
X131928571Y-81442438D01*
X131928571Y-81442438D02*
X132023809Y-81394819D01*
X132023809Y-81394819D02*
X132261904Y-81394819D01*
X132261904Y-81394819D02*
X132357142Y-81442438D01*
X132357142Y-81442438D02*
X132404761Y-81490057D01*
X132404761Y-81490057D02*
X132452380Y-81585295D01*
X132452380Y-81585295D02*
X132452380Y-81680533D01*
X132452380Y-81680533D02*
X132404761Y-81823390D01*
X132404761Y-81823390D02*
X131833333Y-82394819D01*
X131833333Y-82394819D02*
X132452380Y-82394819D01*
X132833333Y-81490057D02*
X132880952Y-81442438D01*
X132880952Y-81442438D02*
X132976190Y-81394819D01*
X132976190Y-81394819D02*
X133214285Y-81394819D01*
X133214285Y-81394819D02*
X133309523Y-81442438D01*
X133309523Y-81442438D02*
X133357142Y-81490057D01*
X133357142Y-81490057D02*
X133404761Y-81585295D01*
X133404761Y-81585295D02*
X133404761Y-81680533D01*
X133404761Y-81680533D02*
X133357142Y-81823390D01*
X133357142Y-81823390D02*
X132785714Y-82394819D01*
X132785714Y-82394819D02*
X133404761Y-82394819D01*
X133785714Y-81490057D02*
X133833333Y-81442438D01*
X133833333Y-81442438D02*
X133928571Y-81394819D01*
X133928571Y-81394819D02*
X134166666Y-81394819D01*
X134166666Y-81394819D02*
X134261904Y-81442438D01*
X134261904Y-81442438D02*
X134309523Y-81490057D01*
X134309523Y-81490057D02*
X134357142Y-81585295D01*
X134357142Y-81585295D02*
X134357142Y-81680533D01*
X134357142Y-81680533D02*
X134309523Y-81823390D01*
X134309523Y-81823390D02*
X133738095Y-82394819D01*
X133738095Y-82394819D02*
X134357142Y-82394819D01*
X134738095Y-81490057D02*
X134785714Y-81442438D01*
X134785714Y-81442438D02*
X134880952Y-81394819D01*
X134880952Y-81394819D02*
X135119047Y-81394819D01*
X135119047Y-81394819D02*
X135214285Y-81442438D01*
X135214285Y-81442438D02*
X135261904Y-81490057D01*
X135261904Y-81490057D02*
X135309523Y-81585295D01*
X135309523Y-81585295D02*
X135309523Y-81680533D01*
X135309523Y-81680533D02*
X135261904Y-81823390D01*
X135261904Y-81823390D02*
X134690476Y-82394819D01*
X134690476Y-82394819D02*
X135309523Y-82394819D01*
X135690476Y-82109104D02*
X136166666Y-82109104D01*
X135595238Y-82394819D02*
X135928571Y-81394819D01*
X135928571Y-81394819D02*
X136261904Y-82394819D01*
X137119047Y-82394819D02*
X136547619Y-82394819D01*
X136833333Y-82394819D02*
X136833333Y-81394819D01*
X136833333Y-81394819D02*
X136738095Y-81537676D01*
X136738095Y-81537676D02*
X136642857Y-81632914D01*
X136642857Y-81632914D02*
X136547619Y-81680533D01*
X123574819Y-87809523D02*
X122574819Y-87809523D01*
X122574819Y-87809523D02*
X123289104Y-87476190D01*
X123289104Y-87476190D02*
X122574819Y-87142857D01*
X122574819Y-87142857D02*
X123574819Y-87142857D01*
X123574819Y-86142857D02*
X123574819Y-86714285D01*
X123574819Y-86428571D02*
X122574819Y-86428571D01*
X122574819Y-86428571D02*
X122717676Y-86523809D01*
X122717676Y-86523809D02*
X122812914Y-86619047D01*
X122812914Y-86619047D02*
X122860533Y-86714285D01*
X113642857Y-114954819D02*
X113976190Y-115954819D01*
X113976190Y-115954819D02*
X114309523Y-114954819D01*
X114642857Y-115954819D02*
X114642857Y-114954819D01*
X114642857Y-114954819D02*
X114880952Y-114954819D01*
X114880952Y-114954819D02*
X115023809Y-115002438D01*
X115023809Y-115002438D02*
X115119047Y-115097676D01*
X115119047Y-115097676D02*
X115166666Y-115192914D01*
X115166666Y-115192914D02*
X115214285Y-115383390D01*
X115214285Y-115383390D02*
X115214285Y-115526247D01*
X115214285Y-115526247D02*
X115166666Y-115716723D01*
X115166666Y-115716723D02*
X115119047Y-115811961D01*
X115119047Y-115811961D02*
X115023809Y-115907200D01*
X115023809Y-115907200D02*
X114880952Y-115954819D01*
X114880952Y-115954819D02*
X114642857Y-115954819D01*
X115642857Y-115954819D02*
X115642857Y-114954819D01*
X115642857Y-114954819D02*
X115880952Y-114954819D01*
X115880952Y-114954819D02*
X116023809Y-115002438D01*
X116023809Y-115002438D02*
X116119047Y-115097676D01*
X116119047Y-115097676D02*
X116166666Y-115192914D01*
X116166666Y-115192914D02*
X116214285Y-115383390D01*
X116214285Y-115383390D02*
X116214285Y-115526247D01*
X116214285Y-115526247D02*
X116166666Y-115716723D01*
X116166666Y-115716723D02*
X116119047Y-115811961D01*
X116119047Y-115811961D02*
X116023809Y-115907200D01*
X116023809Y-115907200D02*
X115880952Y-115954819D01*
X115880952Y-115954819D02*
X115642857Y-115954819D01*
X117357142Y-114907200D02*
X116500000Y-116192914D01*
X118214285Y-115002438D02*
X118119047Y-114954819D01*
X118119047Y-114954819D02*
X117976190Y-114954819D01*
X117976190Y-114954819D02*
X117833333Y-115002438D01*
X117833333Y-115002438D02*
X117738095Y-115097676D01*
X117738095Y-115097676D02*
X117690476Y-115192914D01*
X117690476Y-115192914D02*
X117642857Y-115383390D01*
X117642857Y-115383390D02*
X117642857Y-115526247D01*
X117642857Y-115526247D02*
X117690476Y-115716723D01*
X117690476Y-115716723D02*
X117738095Y-115811961D01*
X117738095Y-115811961D02*
X117833333Y-115907200D01*
X117833333Y-115907200D02*
X117976190Y-115954819D01*
X117976190Y-115954819D02*
X118071428Y-115954819D01*
X118071428Y-115954819D02*
X118214285Y-115907200D01*
X118214285Y-115907200D02*
X118261904Y-115859580D01*
X118261904Y-115859580D02*
X118261904Y-115526247D01*
X118261904Y-115526247D02*
X118071428Y-115526247D01*
X118690476Y-115954819D02*
X118690476Y-114954819D01*
X118690476Y-114954819D02*
X119261904Y-115954819D01*
X119261904Y-115954819D02*
X119261904Y-114954819D01*
X119738095Y-115954819D02*
X119738095Y-114954819D01*
X119738095Y-114954819D02*
X119976190Y-114954819D01*
X119976190Y-114954819D02*
X120119047Y-115002438D01*
X120119047Y-115002438D02*
X120214285Y-115097676D01*
X120214285Y-115097676D02*
X120261904Y-115192914D01*
X120261904Y-115192914D02*
X120309523Y-115383390D01*
X120309523Y-115383390D02*
X120309523Y-115526247D01*
X120309523Y-115526247D02*
X120261904Y-115716723D01*
X120261904Y-115716723D02*
X120214285Y-115811961D01*
X120214285Y-115811961D02*
X120119047Y-115907200D01*
X120119047Y-115907200D02*
X119976190Y-115954819D01*
X119976190Y-115954819D02*
X119738095Y-115954819D01*
X121261904Y-115954819D02*
X120690476Y-115954819D01*
X120976190Y-115954819D02*
X120976190Y-114954819D01*
X120976190Y-114954819D02*
X120880952Y-115097676D01*
X120880952Y-115097676D02*
X120785714Y-115192914D01*
X120785714Y-115192914D02*
X120690476Y-115240533D01*
X124994819Y-94407142D02*
X123994819Y-94407142D01*
X124994819Y-93359524D02*
X124518628Y-93692857D01*
X124994819Y-93930952D02*
X123994819Y-93930952D01*
X123994819Y-93930952D02*
X123994819Y-93550000D01*
X123994819Y-93550000D02*
X124042438Y-93454762D01*
X124042438Y-93454762D02*
X124090057Y-93407143D01*
X124090057Y-93407143D02*
X124185295Y-93359524D01*
X124185295Y-93359524D02*
X124328152Y-93359524D01*
X124328152Y-93359524D02*
X124423390Y-93407143D01*
X124423390Y-93407143D02*
X124471009Y-93454762D01*
X124471009Y-93454762D02*
X124518628Y-93550000D01*
X124518628Y-93550000D02*
X124518628Y-93930952D01*
X124471009Y-92597619D02*
X124471009Y-92930952D01*
X124994819Y-92930952D02*
X123994819Y-92930952D01*
X123994819Y-92930952D02*
X123994819Y-92454762D01*
X123994819Y-91597619D02*
X123994819Y-92073809D01*
X123994819Y-92073809D02*
X124471009Y-92121428D01*
X124471009Y-92121428D02*
X124423390Y-92073809D01*
X124423390Y-92073809D02*
X124375771Y-91978571D01*
X124375771Y-91978571D02*
X124375771Y-91740476D01*
X124375771Y-91740476D02*
X124423390Y-91645238D01*
X124423390Y-91645238D02*
X124471009Y-91597619D01*
X124471009Y-91597619D02*
X124566247Y-91550000D01*
X124566247Y-91550000D02*
X124804342Y-91550000D01*
X124804342Y-91550000D02*
X124899580Y-91597619D01*
X124899580Y-91597619D02*
X124947200Y-91645238D01*
X124947200Y-91645238D02*
X124994819Y-91740476D01*
X124994819Y-91740476D02*
X124994819Y-91978571D01*
X124994819Y-91978571D02*
X124947200Y-92073809D01*
X124947200Y-92073809D02*
X124899580Y-92121428D01*
X124328152Y-90692857D02*
X124994819Y-90692857D01*
X123947200Y-90930952D02*
X124661485Y-91169047D01*
X124661485Y-91169047D02*
X124661485Y-90550000D01*
X123994819Y-89978571D02*
X123994819Y-89883333D01*
X123994819Y-89883333D02*
X124042438Y-89788095D01*
X124042438Y-89788095D02*
X124090057Y-89740476D01*
X124090057Y-89740476D02*
X124185295Y-89692857D01*
X124185295Y-89692857D02*
X124375771Y-89645238D01*
X124375771Y-89645238D02*
X124613866Y-89645238D01*
X124613866Y-89645238D02*
X124804342Y-89692857D01*
X124804342Y-89692857D02*
X124899580Y-89740476D01*
X124899580Y-89740476D02*
X124947200Y-89788095D01*
X124947200Y-89788095D02*
X124994819Y-89883333D01*
X124994819Y-89883333D02*
X124994819Y-89978571D01*
X124994819Y-89978571D02*
X124947200Y-90073809D01*
X124947200Y-90073809D02*
X124899580Y-90121428D01*
X124899580Y-90121428D02*
X124804342Y-90169047D01*
X124804342Y-90169047D02*
X124613866Y-90216666D01*
X124613866Y-90216666D02*
X124375771Y-90216666D01*
X124375771Y-90216666D02*
X124185295Y-90169047D01*
X124185295Y-90169047D02*
X124090057Y-90121428D01*
X124090057Y-90121428D02*
X124042438Y-90073809D01*
X124042438Y-90073809D02*
X123994819Y-89978571D01*
X124994819Y-89216666D02*
X123994819Y-89216666D01*
X123994819Y-89216666D02*
X124994819Y-88645238D01*
X124994819Y-88645238D02*
X123994819Y-88645238D01*
X124994819Y-87645238D02*
X124994819Y-88216666D01*
X124994819Y-87930952D02*
X123994819Y-87930952D01*
X123994819Y-87930952D02*
X124137676Y-88026190D01*
X124137676Y-88026190D02*
X124232914Y-88121428D01*
X124232914Y-88121428D02*
X124280533Y-88216666D01*
%TO.C,1K1*%
D11*
X124730000Y-95630000D02*
X131270000Y-95630000D01*
X124730000Y-95960000D02*
X124730000Y-95630000D01*
X124730000Y-98040000D02*
X124730000Y-98370000D01*
X124730000Y-98370000D02*
X131270000Y-98370000D01*
X131270000Y-95630000D02*
X131270000Y-95960000D01*
X131270000Y-98370000D02*
X131270000Y-98040000D01*
%TO.C,1N5822*%
X120715000Y-78375000D02*
X121625000Y-78375000D01*
X123050000Y-75655000D02*
X123050000Y-81095000D01*
X123170000Y-75655000D02*
X123170000Y-81095000D01*
X123290000Y-75655000D02*
X123290000Y-81095000D01*
X132275000Y-78375000D02*
X131365000Y-78375000D01*
X121625000Y-75655000D02*
X131365000Y-75655000D01*
X131365000Y-81095000D01*
X121625000Y-81095000D01*
X121625000Y-75655000D01*
%TO.C,M2*%
X112880000Y-93880000D02*
X122120000Y-93880000D01*
X112880000Y-96200000D02*
X112880000Y-93880000D01*
X112880000Y-104120000D02*
X112880000Y-96800000D01*
X113400000Y-93880000D02*
X113400000Y-104120000D01*
X114500000Y-93880000D02*
X114500000Y-104120000D01*
X122120000Y-93880000D02*
X122120000Y-104120000D01*
X122120000Y-104120000D02*
X112880000Y-104120000D01*
X112880000Y-96500000D02*
X112270000Y-96940000D01*
X112270000Y-96060000D01*
X112880000Y-96500000D01*
G36*
X112880000Y-96500000D02*
G01*
X112270000Y-96940000D01*
X112270000Y-96060000D01*
X112880000Y-96500000D01*
G37*
%TO.C,PWM/GND1*%
X114915000Y-108880000D02*
X114915000Y-107500000D01*
X116295000Y-108880000D02*
X114915000Y-108880000D01*
X117565000Y-106120000D02*
X120215000Y-106120000D01*
X117565000Y-108880000D02*
X117565000Y-106120000D01*
X117565000Y-108880000D02*
X120215000Y-108880000D01*
X120215000Y-108880000D02*
X120215000Y-106120000D01*
%TO.C,220\u03A911*%
X124630000Y-101730000D02*
X124960000Y-101730000D01*
X124630000Y-108270000D02*
X124630000Y-101730000D01*
X124960000Y-108270000D02*
X124630000Y-108270000D01*
X127040000Y-108270000D02*
X127370000Y-108270000D01*
X127370000Y-101730000D02*
X127040000Y-101730000D01*
X127370000Y-108270000D02*
X127370000Y-101730000D01*
%TO.C,0.1uF1*%
X130880000Y-112130000D02*
X136120000Y-112130000D01*
X130880000Y-112467000D02*
X130880000Y-112130000D01*
X130880000Y-114870000D02*
X130880000Y-114533000D01*
X136120000Y-112130000D02*
X136120000Y-112467000D01*
X136120000Y-114533000D02*
X136120000Y-114870000D01*
X136120000Y-114870000D02*
X130880000Y-114870000D01*
%TO.C,10K1*%
X131130000Y-101730000D02*
X131460000Y-101730000D01*
X131130000Y-108270000D02*
X131130000Y-101730000D01*
X131460000Y-108270000D02*
X131130000Y-108270000D01*
X133540000Y-108270000D02*
X133870000Y-108270000D01*
X133870000Y-101730000D02*
X133540000Y-101730000D01*
X133870000Y-108270000D02*
X133870000Y-101730000D01*
%TO.C,2N2222A1*%
X131700000Y-87350000D02*
X135300000Y-87350000D01*
X131661522Y-87338478D02*
G75*
G02*
X133500000Y-82899999I1838478J1838478D01*
G01*
X133500000Y-82900000D02*
G75*
G02*
X135338478Y-87338478I0J-2600000D01*
G01*
%TO.C,M1*%
X112880000Y-81880000D02*
X122120000Y-81880000D01*
X112880000Y-84200000D02*
X112880000Y-81880000D01*
X112880000Y-92120000D02*
X112880000Y-84800000D01*
X113400000Y-81880000D02*
X113400000Y-92120000D01*
X114500000Y-81880000D02*
X114500000Y-92120000D01*
X122120000Y-81880000D02*
X122120000Y-92120000D01*
X122120000Y-92120000D02*
X112880000Y-92120000D01*
X112880000Y-84500000D02*
X112270000Y-84940000D01*
X112270000Y-84060000D01*
X112880000Y-84500000D01*
G36*
X112880000Y-84500000D02*
G01*
X112270000Y-84940000D01*
X112270000Y-84060000D01*
X112880000Y-84500000D01*
G37*
%TO.C,VDD/GND1*%
X114845000Y-114380000D02*
X114845000Y-113000000D01*
X116225000Y-114380000D02*
X114845000Y-114380000D01*
X117495000Y-111620000D02*
X120145000Y-111620000D01*
X117495000Y-114380000D02*
X117495000Y-111620000D01*
X117495000Y-114380000D02*
X120145000Y-114380000D01*
X120145000Y-114380000D02*
X120145000Y-111620000D01*
%TO.C,IRF540N1*%
X125930000Y-88740000D02*
X136150000Y-88740000D01*
X125930000Y-90120000D02*
X136150000Y-90120000D01*
X125930000Y-93360000D02*
X125930000Y-88740000D01*
X129190000Y-88740000D02*
X129190000Y-90120000D01*
X132890000Y-88740000D02*
X132890000Y-90120000D01*
X136150000Y-88740000D02*
X136150000Y-93360000D01*
X136150000Y-93360000D02*
X125930000Y-93360000D01*
%TD*%
M02*
