M48
; DRILL file KiCad 10.0.3 date 2026-08-20T16:39:33
; FORMAT={-:-/ absolute / metric / decimal}
; #@! TF.CreationDate,2026-08-20T16:39:33-05:00
; #@! TF.GenerationSoftware,Kicad,Pcbnew,10.0.3
; #@! TF.FileFunction,Plated,1,2,PTH
FMAT,2
METRIC
; #@! TA.AperFunction,Plated,PTH,ComponentDrill
T1C0.750
; #@! TA.AperFunction,Plated,PTH,ComponentDrill
T2C0.800
; #@! TA.AperFunction,Plated,PTH,ComponentDrill
T3C1.000
; #@! TA.AperFunction,Plated,PTH,ComponentDrill
T4C1.100
; #@! TA.AperFunction,Plated,PTH,ComponentDrill
T5C1.300
; #@! TA.AperFunction,Plated,PTH,ComponentDrill
T6C1.600
%
G90
G05
T1
X132.23Y-85.5
X133.5Y-85.5
X134.77Y-85.5
T2
X124.19Y-97.0
X126.0Y-101.19
X126.0Y-108.81
X131.0Y-113.5
X131.81Y-97.0
X132.5Y-101.19
X132.5Y-108.81
X136.0Y-113.5
T3
X116.225Y-113.0
X116.295Y-107.5
X118.765Y-113.0
X118.835Y-107.5
T4
X128.5Y-92.0
X131.04Y-92.0
X133.58Y-92.0
T5
X118.0Y-84.5
X118.0Y-89.5
X118.0Y-96.5
X118.0Y-101.5
T6
X118.875Y-78.375
X134.115Y-78.375
M30
